<svg xmlns="http://www.w3.org/2000/svg" width="933.333" height="933.333" viewBox="0 0 700 700" preserveAspectRatio="xMidYMid meet" xmlns:v="https://vecta.io/nano"><path d="M537.7 28.6c-.1.1-3.3.4-7.2.8-18.4 1.5-46.6 8.5-63 15.6-39.6 17.1-71.1 36.9-101 63.5-13.3 11.8-12.3 11.3-12 5.8.5-10-6-29.7-12.2-37-1-1.1-3.3-4-5.2-6.3-5.2-6.3-17.9-16.2-26.3-20.3-19.6-9.7-45.7-10.8-75.6-3.2-10.4 2.6-21.6 6.3-28.9 9.6-2.3 1.1-4.4 1.9-4.7 1.9s-4.5 1.9-9.3 4.3c-36.4 18-66.5 39.9-106.7 77.7-20.5 19.4-33.7 33.7-47.2 51.5-25 32.9-26.5 35.6-26.9 49-.7 26 19.1 52.8 40 53.9 9.2.5 17.3-2.8 25.7-10.3 1.6-1.3 6.7-7.9 11.5-14.5 30-41.9 62.6-77.9 90.3-100l10.5-8.5c4.2-3.4 21.3-14 28.4-17.6 28.7-14.3 55.7-14.9 69.2-1.4 6.5 6.5 6.7 16.9.8 34.2-3.3 9.8-15.1 34.1-21.8 45.1-2.3 3.6-4.1 6.8-4.1 7.1 0 .2-2.7 4.7-6 10s-6 9.8-6 10-3 5-6.6 10.7L232.6 277l-40.1 61.2-114 176.3-26.3 41.1c-26 40.5-29.2 47.5-29.3 63.5 0 15.1 7.7 27 25.6 39.6 24.1 17 42.6 16.5 61.4-1.7 14-13.5 25.3-31.4 45.8-73l19.3-38 6.2-11 56.8-99.5 24.3-42.5c1-1.9 3.6-6.4 5.7-10l5.7-10c3-5.4 20.2-35.3 21.6-37.4 21-34.1 47.5-71.2 68.3-95.6 32.8-38.5 59.7-65 89.4-88.1 15.9-12.5 35.3-24.1 52-31.3 12.1-5.2 30.6-7.1 39.5-4.1 13.2 4.5 23.3 15.5 27 29.5 1.3 4.8 1.3 19.5 0 25.5-6.4 30.7-22.3 60.9-69.7 132.5-5.3 8-14.9 23.5-21.4 34.5-9.8 16.7-35 56.3-71.5 112.5l-20.3 31.5-14.3 22c-2.4 2.9-14 23.2-18.3 32.1-4.4 9-11.2 27.3-12.6 33.8-2.9 13.2-3.3 17.2-3 29.6.3 11.6.7 14.6 3.1 21.9 10.3 30.5 40.6 48 83.4 48.4 7.3 0 23.3-1.1 27.5-1.9a286.39 286.39 0 0 0 7.6-1.4c12.9-2.2 22.3-4.7 38.5-10.2 25.8-8.8 54.7-22.5 86.5-41.2 6.3-3.8 12.2-7.4 13.1-8.2.8-.8 1.9-1.4 2.3-1.4.9 0 35.5-23.3 43.1-29 32.1-24.4 50.4-56.6 41.1-72.4-8.1-13.8-25.7-16.4-45.9-6.6-3.4 1.7-7.1 3.6-8.1 4.3-8.1 5.1-19.4 12.5-21.7 14.2l-15.1 11c-27.1 19.8-51.9 34.4-75.3 44-8.1 3.4-21.8 8-27 9.1-10.8 2.2-13.9 2.6-20 2.6-8.4.1-13.4-1.8-16.4-6.1-6.9-9.6-.4-25.2 32.8-79l10.1-16c2-3 49.3-78 59.2-93.9l32.6-54.7 7.3-12.5c6.1-9.7 32.4-61.2 39.4-77l5.7-13c8.6-19 19.9-54.5 22.4-70.4.3-2.1.8-4.8 1-6 .8-3.8 1.7-16 1.8-23.1.1-31.9-10.3-54.1-34.7-74.3-4.4-3.6-15.2-10-23-13.6-16.6-7.6-30.3-11.7-48.2-14.2-3.8-.5-25.3-1.2-25.8-.8z"/></svg>