<svg xmlns="http://www.w3.org/2000/svg" width="81" height="81"><path d="M4.414 66.819l11.904-18.56c11.008-17.152 20.224-29.184 16.768-31.872-3.84-3.072-12.928.64-23.68 16.128-4.736 5.376-10.368-3.328-7.168-7.296 1.664-2.048 3.2-5.12 9.984-11.008 9.856-8.832 19.712-11.264 24.704-7.808 3.968 2.688 4.224 6.016 4.096 7.424 7.296-7.04 18.432-12.672 27.392-9.728 13.824 4.608 10.752 16.768-1.92 37.888-2.944 4.992-10.24 16-12.672 20.48-1.408 2.816-1.664 3.84-.512 4.736 1.28.896 6.528 0 13.44-4.608 3.84-2.432 9.472-8.192 12.544-4.48 1.536 1.792-.768 6.016-5.376 9.216-6.912 4.864-13.696 8.448-19.712 9.728-6.784 1.408-12.032-.128-14.08-4.096-1.664-3.584-.768-8.448 2.944-14.208l10.752-16.64c1.152-1.792 3.2-5.504 3.968-6.528 6.272-9.344 11.904-18.304 6.016-21.76-6.144-3.584-21.632 11.008-30.592 26.624L20.286 63.107c-.512.768-3.584 7.296-4.352 8.576-2.304 3.712-4.992 8.064-9.856 4.864-3.456-2.176-4.864-4.864-1.664-9.728z" fill="#3a86ff"/></svg>