<svg xmlns="http://www.w3.org/2000/svg" width="143" height="28" fill="#000"><path d="M2.33 2.341h4.798l14.743 7.72v-7.72h4.798V26h-4.798V15.147L7.128 7.473V26H2.33V2.341zm29.623 18.028c0-.858.187-1.64.56-2.346s.933-1.312 1.68-1.816c.747-.515 1.675-.908 2.785-1.181 1.12-.283 2.422-.424 3.905-.424 1.1 0 2.255.081 3.466.242a31.74 31.74 0 0 1 3.769.742c-.05-.565-.222-1.085-.515-1.559-.293-.484-.701-.898-1.226-1.241-.515-.353-1.14-.626-1.877-.817-.727-.192-1.554-.288-2.482-.288a16.69 16.69 0 0 0-1.665.091l-1.877.272-1.922.454c-.626.182-1.211.399-1.756.651l-1.362-3.678 2.165-.666 2.377-.515 2.422-.348 2.346-.121c3.34 0 5.823.853 7.447 2.558s2.437 4.319 2.437 7.841V26h-4.48v-1.68c-.464.273-.974.53-1.529.772-.545.242-1.14.454-1.786.636a15.26 15.26 0 0 1-2.089.424c-.737.111-1.519.167-2.346.167-1.393 0-2.619-.151-3.678-.454-1.05-.303-1.927-.722-2.634-1.256s-1.241-1.16-1.605-1.877c-.353-.727-.53-1.514-.53-2.361zm4.723-.151a1.73 1.73 0 0 0 .227.848c.151.262.394.5.727.712.333.202.757.368 1.271.499.525.121 1.155.182 1.892.182a12.14 12.14 0 0 0 2.286-.212 13.29 13.29 0 0 0 2.059-.56 10.56 10.56 0 0 0 1.726-.802c.515-.302.944-.616 1.287-.939v-.787l-2.043-.484-1.922-.303-1.726-.166-1.408-.045c-.838 0-1.534.056-2.089.167s-1.004.262-1.347.454c-.343.182-.585.399-.727.651a1.59 1.59 0 0 0-.212.787zM60.924 5.702c-.444 0-.848-.061-1.211-.182a3.04 3.04 0 0 1-.908-.515 2.48 2.48 0 0 1-.59-.757c-.131-.293-.197-.6-.197-.923 0-.333.066-.641.197-.923a2.26 2.26 0 0 1 .59-.757c.252-.212.555-.378.908-.5.363-.131.767-.197 1.211-.197.454 0 .858.066 1.211.197a2.79 2.79 0 0 1 .923.5 2.1 2.1 0 0 1 .575.757 2.04 2.04 0 0 1 .212.923 2.1 2.1 0 0 1-.212.923c-.131.283-.323.535-.575.757a3.01 3.01 0 0 1-.923.515c-.353.121-.757.182-1.211.182zm-2.24 2.437h4.48V26h-4.48V8.139zm10.793-5.798h8.673c2.533 0 4.733.272 6.6.817s3.411 1.327 4.632 2.346c1.231 1.009 2.144 2.24 2.74 3.693.606 1.443.908 3.068.908 4.874 0 1.716-.298 3.305-.893 4.768-.595 1.453-1.504 2.715-2.725 3.784-1.221 1.06-2.765 1.892-4.632 2.498-1.867.595-4.067.893-6.6.893L69.477 26V2.341zm9.854 19.511c1.433 0 2.689-.182 3.769-.545 1.08-.373 1.978-.898 2.694-1.574a6.39 6.39 0 0 0 1.635-2.452c.363-.958.545-2.028.545-3.209 0-1.161-.182-2.205-.545-3.133-.363-.938-.908-1.731-1.635-2.376-.716-.656-1.614-1.16-2.694-1.514s-2.336-.53-3.769-.53h-5.056v15.333h5.056zm16.877-4.783c0-1.281.257-2.482.772-3.602a8.85 8.85 0 0 1 2.225-2.936c.969-.838 2.134-1.499 3.497-1.983 1.372-.484 2.911-.727 4.616-.727s3.24.242 4.602.727c1.372.484 2.538 1.145 3.497 1.983.968.838 1.71 1.816 2.225 2.936.524 1.12.787 2.321.787 3.602a8.4 8.4 0 0 1-.787 3.603c-.515 1.12-1.257 2.099-2.225 2.936-.959.838-2.125 1.499-3.497 1.983-1.362.484-2.896.727-4.602.727s-3.244-.242-4.616-.727c-1.363-.484-2.528-1.145-3.497-1.983a8.86 8.86 0 0 1-2.225-2.936 8.52 8.52 0 0 1-.772-3.603zm4.708 0a5.05 5.05 0 0 0 .423 2.044c.293.636.712 1.201 1.257 1.695.555.484 1.226.873 2.013 1.166.797.283 1.7.424 2.709.424s1.908-.141 2.695-.424c.797-.293 1.468-.681 2.013-1.166.555-.494.974-1.06 1.256-1.695a4.89 4.89 0 0 0 .439-2.044 4.89 4.89 0 0 0-.439-2.043 4.76 4.76 0 0 0-1.256-1.695c-.545-.495-1.216-.883-2.013-1.166-.787-.293-1.686-.439-2.695-.439s-1.912.146-2.709.439c-.787.283-1.458.671-2.013 1.166a5.02 5.02 0 0 0-1.257 1.695 5.05 5.05 0 0 0-.423 2.043zm20.964.046c0-1.312.237-2.533.711-3.663a8.3 8.3 0 0 1 2.104-2.952c.929-.838 2.059-1.493 3.391-1.968 1.342-.474 2.871-.711 4.586-.711.747 0 1.499.045 2.256.136a18.06 18.06 0 0 1 2.179.394 15.14 15.14 0 0 1 1.983.59c.616.222 1.151.469 1.605.742l-2.074 3.375c-.979-.454-1.907-.787-2.785-.999a11.13 11.13 0 0 0-2.649-.318c-1.029 0-1.953.136-2.77.409-.817.262-1.514.636-2.089 1.12a4.84 4.84 0 0 0-1.302 1.695c-.292.646-.439 1.352-.439 2.119a4.89 4.89 0 0 0 .47 2.134c.323.646.772 1.206 1.347 1.68.585.464 1.286.832 2.104 1.105.827.262 1.746.394 2.755.394 1.11 0 2.154-.157 3.133-.469.989-.313 1.907-.732 2.755-1.256l2.074 3.375a16.52 16.52 0 0 1-1.741.908c-.626.272-1.297.51-2.013.711a16.58 16.58 0 0 1-2.241.469 15.72 15.72 0 0 1-2.421.182c-1.706 0-3.235-.232-4.587-.696s-2.497-1.105-3.436-1.922c-.938-.828-1.66-1.801-2.164-2.921-.495-1.12-.742-2.341-.742-3.663z"/></svg>